# xmcd CD database file
#
# Track frame offsets:
#	187
#	23660
#	46285
#
# Disc length: 928 seconds
#
# Revision: 0
# Processed by: cddbd v1.5.1PL0 Copyright (c) Steve Scherf et al.
# Submitted via: CDex 1.51
#
DISCID=19039e03
DTITLE=福山雅治 - 約束の丘
DYEAR=1992
DGENRE=JPop
TTITLE0=約束の丘
TTITLE1=ふたつの鼓動
TTITLE2=約束の丘(オリジナル・カラオケ)
EXTD=YEAR: 1992
EXTT0=
EXTT1=
EXTT2=
PLAYORDER=
